{"asset":{"version":"2.0","generator":"THREE.GLTFExporter r175"},"scenes":[{"name":"AuxScene","nodes":[12]}],"scene":0,"nodes":[{"mesh":0},{"mesh":1},{"mesh":2},{"mesh":3},{"mesh":4},{"mesh":5},{"mesh":6},{"mesh":7},{"matrix":[0.3475330922135137,0,-0.34753309221351375,0,0,-0.49148601238181056,0,0,0.34753309221351375,0,0.3475330922135137,0,0,0,0,1],"children":[0,1,2,3,4,5,6,7]},{"children":[8]},{"matrix":[1,0,0,0,0,1,0,0,0,0,1,0,-28.832109840998786,50.02451946239803,27.441977555003078,1],"children":[9]},{"children":[10]},{"children":[11]}],"bufferViews":[{"buffer":0,"byteOffset":0,"byteLength":22896,"target":34962,"byteStride":12},{"buffer":0,"byteOffset":22896,"byteLength":15264,"target":34962,"byteStride":8},{"buffer":0,"byteOffset":38160,"byteLength":22896,"target":34962,"byteStride":12},{"buffer":0,"byteOffset":61056,"byteLength":115776,"target":34962,"byteStride":12},{"buffer":0,"byteOffset":176832,"byteLength":77184,"target":34962,"byteStride":8},{"buffer":0,"byteOffset":254016,"byteLength":115776,"target":34962,"byteStride":12},{"buffer":0,"byteOffset":369792,"byteLength":67536,"target":34962,"byteStride":12},{"buffer":0,"byteOffset":437328,"byteLength":45024,"target":34962,"byteStride":8},{"buffer":0,"byteOffset":482352,"byteLength":67536,"target":34962,"byteStride":12},{"buffer":0,"byteOffset":549888,"byteLength":68976,"target":34962,"byteStride":12},{"buffer":0,"byteOffset":618864,"byteLength":45984,"target":34962,"byteStride":8},{"buffer":0,"byteOffset":664848,"byteLength":68976,"target":34962,"byteStride":12},{"buffer":0,"byteOffset":733824,"byteLength":46800,"target":34962,"byteStride":12},{"buffer":0,"byteOffset":780624,"byteLength":31200,"target":34962,"byteStride":8},{"buffer":0,"byteOffset":811824,"byteLength":46800,"target":34962,"byteStride":12},{"buffer":0,"byteOffset":858624,"byteLength":72000,"target":34962,"byteStride":12},{"buffer":0,"byteOffset":930624,"byteLength":48000,"target":34962,"byteStride":8},{"buffer":0,"byteOffset":978624,"byteLength":72000,"target":34962,"byteStride":12},{"buffer":0,"byteOffset":1050624,"byteLength":25200,"target":34962,"byteStride":12},{"buffer":0,"byteOffset":1075824,"byteLength":16800,"target":34962,"byteStride":8},{"buffer":0,"byteOffset":1092624,"byteLength":25200,"target":34962,"byteStride":12},{"buffer":0,"byteOffset":1117824,"byteLength":35280,"target":34962,"byteStride":12},{"buffer":0,"byteOffset":1153104,"byteLength":23520,"target":34962,"byteStride":8},{"buffer":0,"byteOffset":1176624,"byteLength":35280,"target":34962,"byteStride":12}],"buffers":[{"byteLength":1211904,"uri":"data:application/octet-stream;base64,"}],"accessors":[{"bufferView":0,"componentType":5126,"count":1908,"max":[98.71244049072266,174.58563232421875,4.599999904632568],"min":[62.99399185180664,138.95599365234375,-0.6000000238418579],"type":"VEC3"},{"bufferView":1,"componentType":5126,"count":1908,"max":[169.99404907226562,174.28468322753906],"min":[63.29664611816406,-3.5999999046325684],"type":"VEC2"},{"bufferView":2,"componentType":5126,"count":1908,"max":[0.9952769875526428,0.9995466470718384,1],"min":[-0.9948030114173889,-0.999973475933075,-1],"type":"VEC3"},{"bufferView":3,"componentType":5126,"count":9648,"max":[136.65928649902344,203.8660888671875,4.599999904632568],"min":[45.449920654296875,129.83787536621094,-0.6000000238418579],"type":"VEC3"},{"bufferView":4,"componentType":5126,"count":9648,"max":[203.8660888671875,203.46458435058594],"min":[45.449920654296875,-3.5999999046325684],"type":"VEC2"},{"bufferView":5,"componentType":5126,"count":9648,"max":[0.999984860420227,0.9999970197677612,1],"min":[-0.9967869520187378,-0.9999325275421143,-1],"type":"VEC3"},{"bufferView":6,"componentType":5126,"count":5628,"max":[135.7867889404297,175.266845703125,4.599999904632568],"min":[26.353487014770508,102.15938568115234,-0.6000000238418579],"type":"VEC3"},{"bufferView":7,"componentType":5126,"count":5628,"max":[175.266845703125,174.88958740234375],"min":[26.653545379638672,-3.5999999046325684],"type":"VEC2"},{"bufferView":8,"componentType":5126,"count":5628,"max":[0.9999991655349731,1,1],"min":[-0.999999463558197,-0.9963451027870178,-1],"type":"VEC3"},{"bufferView":9,"componentType":5126,"count":5748,"max":[162.26890563964844,130.47500610351562,4.599999904632568],"min":[-0.3454819917678833,27.2166690826416,-0.6000000238418579],"type":"VEC3"},{"bufferView":10,"componentType":5126,"count":5748,"max":[162.26890563964844,130.1750030517578],"min":[-0.3454819917678833,-3.5999999046325684],"type":"VEC2"},{"bufferView":11,"componentType":5126,"count":5748,"max":[1,1,1],"min":[-0.9999959468841553,-1,-1],"type":"VEC3"},{"bufferView":12,"componentType":5126,"count":3900,"max":[126.17105102539062,101.71453857421875,4.599999904632568],"min":[105.53333282470703,4.94122838973999,-0.6000000238418579],"type":"VEC3"},{"bufferView":13,"componentType":5126,"count":3900,"max":[125.8709716796875,101.33541870117188],"min":[4.94122838973999,-3.5999999046325684],"type":"VEC2"},{"bufferView":14,"componentType":5126,"count":3900,"max":[1,0.8920484185218811,1],"min":[-1,-0.9394393563270569,-1],"type":"VEC3"},{"bufferView":15,"componentType":5126,"count":6000,"max":[56.127079010009766,102.23822021484375,4.599999904632568],"min":[35.487403869628906,4.9377241134643555,-0.6000000238418579],"type":"VEC3"},{"bufferView":16,"componentType":5126,"count":6000,"max":[102.23822021484375,101.86457824707031],"min":[4.9377241134643555,-3.5999999046325684],"type":"VEC2"},{"bufferView":17,"componentType":5126,"count":6000,"max":[1,0.9264455437660217,1],"min":[-1,-0.9973134398460388,-1],"type":"VEC3"},{"bufferView":18,"componentType":5126,"count":2100,"max":[101.59017944335938,88.42931365966797,4.599999904632568],"min":[82.77916717529297,-0.3017220199108124,-0.6000000238418579],"type":"VEC3"},{"bufferView":19,"componentType":5126,"count":2100,"max":[101.34583282470703,88.10624694824219],"min":[-0.3017220199108124,-3.5999999046325684],"type":"VEC2"},{"bufferView":20,"componentType":5126,"count":2100,"max":[1,0.9915300011634827,1],"min":[-1,-0.9999433755874634,-1],"type":"VEC3"},{"bufferView":21,"componentType":5126,"count":2940,"max":[78.8812484741211,88.70303344726562,4.599999904632568],"min":[60.07024002075195,-0.3017220199108124,-0.6000000238418579],"type":"VEC3"},{"bufferView":22,"componentType":5126,"count":2940,"max":[88.70303344726562,88.3708267211914],"min":[-0.3017220199108124,-3.5999999046325684],"type":"VEC2"},{"bufferView":23,"componentType":5126,"count":2940,"max":[1,0.9995715022087097,1],"min":[-1,-0.9999433755874634,-1],"type":"VEC3"}],"materials":[{"pbrMetallicRoughness":{"baseColorFactor":[0.6375968739867731,0.6653872982754769,0.7083757798856457,1],"metallicFactor":0,"roughnessFactor":0.3},"doubleSided":true,"extensions":{"KHR_materials_transmission":{"transmissionFactor":1},"KHR_materials_volume":{"thicknessFactor":0,"attenuationColor":[1,1,1]}}}],"meshes":[{"primitives":[{"mode":4,"attributes":{"POSITION":0,"TEXCOORD_0":1,"NORMAL":2},"material":0}]},{"primitives":[{"mode":4,"attributes":{"POSITION":3,"TEXCOORD_0":4,"NORMAL":5},"material":0}]},{"primitives":[{"mode":4,"attributes":{"POSITION":6,"TEXCOORD_0":7,"NORMAL":8},"material":0}]},{"primitives":[{"mode":4,"attributes":{"POSITION":9,"TEXCOORD_0":10,"NORMAL":11},"material":0}]},{"primitives":[{"mode":4,"attributes":{"POSITION":12,"TEXCOORD_0":13,"NORMAL":14},"material":0}]},{"primitives":[{"mode":4,"attributes":{"POSITION":15,"TEXCOORD_0":16,"NORMAL":17},"material":0}]},{"primitives":[{"mode":4,"attributes":{"POSITION":18,"TEXCOORD_0":19,"NORMAL":20},"material":0}]},{"primitives":[{"mode":4,"attributes":{"POSITION":21,"TEXCOORD_0":22,"NORMAL":23},"material":0}]}],"extensionsUsed":["KHR_materials_transmission","KHR_materials_volume"]}